<svg width="792" height="125" viewBox="0 0 792 125" fill="none" xmlns="http://www.w3.org/2000/svg">
<path d="M150 67.4957V67.2963C150 48.0564 164.985 32.3135 185.475 32.3135C195.726 32.3135 202.481 34.6271 208.571 38.8819C210.02 39.9456 211.669 41.9799 211.669 44.8785C211.669 48.9339 208.384 52.2181 204.329 52.2181C202.202 52.2181 200.845 51.447 199.782 50.6758C195.726 47.7772 191.378 46.0353 184.996 46.0353C174.173 46.0353 165.57 55.6087 165.57 67.1101V67.3095C165.57 79.6751 174.08 88.7699 186.06 88.7699C191.471 88.7699 196.311 87.4137 200.074 84.7145V75.048H190.022C186.445 75.048 183.547 72.2425 183.547 68.6658C183.547 65.089 186.445 62.1904 190.022 62.1904H207.028C211.19 62.1904 214.474 65.4746 214.474 69.6364V86.0708C214.474 90.4187 212.825 93.4237 209.249 95.5378C203.744 98.9151 195.713 102.306 185.568 102.306C164.493 102.292 150 87.5067 150 67.4957Z" fill="#2F4F3D"/>
<path d="M227.226 56.0871C227.226 52.0317 230.51 48.7474 234.565 48.7474C238.621 48.7474 241.905 52.0317 241.905 56.0871V58.4006C244.032 53.3746 247.516 48.7341 251.864 48.7341C256.411 48.7341 259.017 51.7258 259.017 55.8876C259.017 59.7568 256.504 62.0704 253.513 62.7485C246.067 64.4903 241.918 70.1945 241.918 80.6322V94.354C241.918 98.4094 238.634 101.694 234.578 101.694C230.523 101.694 227.239 98.4094 227.239 94.354V56.0871H227.226Z" fill="#2F4F3D"/>
<path d="M263.658 75.5136V75.3274C263.658 60.4488 275.638 48.3623 291.78 48.3623C307.828 48.3623 319.715 60.2493 319.715 75.1413V75.3274C319.715 90.2061 307.735 102.293 291.593 102.293C275.545 102.293 263.658 90.4056 263.658 75.5136ZM305.222 75.5136V75.3274C305.222 67.6953 299.718 61.0205 291.593 61.0205C283.19 61.0205 278.164 67.4958 278.164 75.1279V75.3274C278.164 82.9596 283.669 89.6344 291.793 89.6344C300.196 89.6344 305.222 83.159 305.222 75.5136Z" fill="#2F4F3D"/>
<path d="M338.662 95.5247L326.004 58.9862C325.712 58.122 325.326 56.6727 325.326 55.4095C325.326 52.0322 328.039 48.7347 332.387 48.7347C336.056 48.7347 338.476 51.0482 339.54 54.4388L347.465 80.7258L355.589 54.5319C356.652 51.0482 359.365 48.6416 363.128 48.6416H363.992C367.755 48.6416 370.467 51.0615 371.531 54.5319L379.748 80.8189L387.872 54.3325C388.843 51.2344 391.064 48.7214 394.933 48.7214C398.988 48.7214 401.794 51.8195 401.794 55.4893C401.794 56.4599 401.501 57.8028 401.315 58.481L388.271 95.4981C386.729 100.045 383.724 102.066 380.147 102.066H379.669C376.092 102.066 373.1 100.032 371.744 95.7906L363.5 69.7164L355.19 95.8172C353.834 100.072 350.842 102.093 347.265 102.093H346.787C343.196 102.093 340.205 100.072 338.662 95.5247Z" fill="#2F4F3D"/>
<path d="M409.692 67.4957V67.2963C409.692 48.0564 424.863 32.3135 445.738 32.3135C466.614 32.3135 481.599 47.8702 481.599 67.1101V67.3095C481.599 86.5494 466.428 102.292 445.552 102.292C424.677 102.292 409.692 86.7355 409.692 67.4957ZM466.042 67.4957V67.2963C466.042 55.7018 457.532 46.0353 445.552 46.0353C433.572 46.0353 425.249 55.5024 425.249 67.1101V67.3095C425.249 78.904 433.758 88.5705 445.738 88.5705C457.732 88.5705 466.042 79.0901 466.042 67.4957Z" fill="#E7883F"/>
<path d="M493.299 56.0876C493.299 52.0322 496.584 48.748 500.639 48.748C504.694 48.748 507.979 52.0322 507.979 56.0876V56.6725C511.356 52.3246 515.717 48.3623 523.15 48.3623C534.266 48.3623 540.741 55.702 540.741 67.6022V94.3812C540.741 98.4366 537.457 101.721 533.401 101.721C529.346 101.721 526.062 98.4366 526.062 94.3812V72.2426C526.062 65.2886 522.777 61.7119 517.166 61.7119C511.555 61.7119 507.979 65.2886 507.979 72.2426V94.3812C507.979 98.4366 504.694 101.721 500.639 101.721C496.584 101.721 493.299 98.4366 493.299 94.3812V56.0876Z" fill="#E7883F"/>
<path d="M555.048 40.9164C555.048 36.7546 558.332 33.4705 562.494 33.4705H581.441C602.702 33.4705 617.395 48.0699 617.395 67.1103V67.3097C617.395 86.3501 602.702 101.136 581.441 101.136H562.494C558.332 101.136 555.048 97.8516 555.048 93.6898V40.9164ZM581.441 87.6931C593.621 87.6931 601.838 79.4759 601.838 67.4959V67.2965C601.838 55.3164 593.621 46.8998 581.441 46.8998H569.94V87.6931H581.441Z" fill="#43281A"/>
<path d="M625.997 86.2438V86.0443C625.997 74.7424 634.6 69.5169 646.872 69.5169C652.085 69.5169 655.861 70.3811 659.531 71.6443V70.7801C659.531 64.6903 655.768 61.313 648.415 61.313C644.359 61.313 641.075 61.898 638.27 62.7623C637.405 63.0548 636.82 63.1479 636.142 63.1479C632.765 63.1479 630.052 60.5418 630.052 57.1513C630.052 54.5452 631.701 52.3246 634.015 51.4471C638.655 49.7052 643.681 48.7346 650.542 48.7346C658.56 48.7346 664.37 50.862 668.04 54.5318C671.909 58.4011 673.651 64.1052 673.651 71.0592V94.6471C673.651 98.6094 670.46 101.707 666.498 101.707C662.243 101.707 659.438 98.7158 659.438 95.6177V95.5246C655.861 99.4869 650.928 102.093 643.774 102.093C634.015 102.093 625.997 96.4953 625.997 86.2438ZM659.73 82.8664V80.2604C657.217 79.1036 653.933 78.3324 650.356 78.3324C644.067 78.3324 640.211 80.8454 640.211 85.4859V85.6853C640.211 89.6476 643.495 91.9745 648.229 91.9745C655.09 91.9479 659.73 88.185 659.73 82.8664Z" fill="#43281A"/>
<path d="M686.11 36.9542C686.11 32.6994 689.687 30.0933 694.327 30.0933C698.967 30.0933 702.544 32.6994 702.544 36.9542V37.1536C702.544 41.4085 698.967 44.1077 694.327 44.1077C689.687 44.1077 686.11 41.3952 686.11 37.1536V36.9542ZM686.974 56.0878C686.974 52.0324 690.258 48.7481 694.314 48.7481C698.369 48.7481 701.653 52.0324 701.653 56.0878V94.368C701.653 98.4234 698.369 101.708 694.314 101.708C690.258 101.708 686.974 98.4234 686.974 94.368V56.0878Z" fill="#43281A"/>
<path d="M716.16 37.3396C716.16 33.2842 719.444 30 723.5 30C727.555 30 730.853 33.2842 730.853 37.3396V94.3679C730.853 98.4233 727.568 101.708 723.5 101.708C719.444 101.708 716.16 98.4233 716.16 94.3679V37.3396Z" fill="#43281A"/>
<path d="M747.38 115.536C745.253 114.764 742.74 113.023 742.74 109.446C742.74 105.869 745.545 103.449 748.537 103.449C749.694 103.449 750.372 103.649 750.957 103.835C752.22 104.22 752.991 104.42 754.055 104.42C756.661 104.42 757.924 103.941 759.28 101.322L759.759 100.165L742.075 59.1856C741.689 58.2149 741.304 56.7656 741.304 55.8083C741.304 51.6465 744.495 48.7479 748.55 48.7479C752.22 48.7479 754.347 50.7823 755.611 54.2527L766.819 84.4089L777.643 54.3457C778.799 51.2476 780.927 48.7346 784.703 48.7346C788.479 48.7346 791.657 51.6333 791.657 55.5025C791.657 56.6593 791.272 58.308 790.979 58.9862L772.909 102.386C768.561 112.916 764.213 116.879 755.411 116.879C752.114 116.892 749.8 116.4 747.38 115.536Z" fill="#43281A"/>
<path d="M54.0479 72.1355V75.6564C54.065 75.7221 54.0771 75.7878 54.0966 75.8535C54.0966 75.8535 54.0966 75.8535 54.0966 75.8559C54.8655 78.934 56.7537 80.8028 59.9438 81.8126C62.6593 82.6716 65.6936 82.6326 68.4895 81.6983C78.6484 78.3014 82.3251 80.2918 85.8801 82.2117C88.0481 83.3821 90.1067 84.4965 94.0462 84.2581C94.8735 84.207 95.5961 84.808 95.7032 85.6304V85.6329C95.8224 86.5429 95.1411 87.3581 94.2238 87.414C93.7955 87.4408 93.3843 87.4505 92.9877 87.4505C88.9241 87.4505 86.5322 86.1584 84.3763 84.9929C81.2715 83.3139 78.5729 81.8515 70.5018 84.37H70.4993H70.4969C76.4584 85.5331 79.0109 88.1951 81.3201 90.6016C83.3714 92.7405 85.1671 94.6165 89.3621 95.4317C90.1699 95.5874 90.7126 96.3514 90.6128 97.169V97.1715C90.5009 98.0815 89.6371 98.7044 88.7367 98.5292C83.5758 97.5243 81.2715 95.1202 79.0377 92.7891C76.7431 90.3948 74.5507 88.1148 68.7401 87.2705C69.599 88.8326 70.0297 90.5432 70.4531 92.2295C71.4799 96.3101 72.6357 100.907 79.9891 105.291C80.7167 105.724 80.977 106.651 80.5707 107.403L80.5512 107.437C80.1351 108.206 79.1618 108.474 78.4099 108.026C69.8983 102.97 68.5138 97.4635 67.3896 92.996C66.4674 89.329 65.8542 86.8957 61.5668 85.4066C60.6908 85.28 59.8318 85.0854 58.9924 84.8201C56.8705 84.1461 55.2622 83.1801 54.0479 82.0292V86.6986H54.0504C54.0504 89.5358 56.306 91.4119 58.6931 93.3974C61.0777 95.3806 63.545 97.4294 63.9514 100.634C64.1485 102.184 64.1801 103.53 64.2093 104.717C64.2823 107.759 64.331 109.72 66.8616 112.769C67.3945 113.411 67.3458 114.358 66.7302 114.937L66.701 114.964C66.0537 115.574 65.0269 115.506 64.4599 114.82C61.1945 110.878 61.1264 108.036 61.0461 104.792C61.0169 103.627 60.9876 102.42 60.8125 101.031C60.5643 99.0645 58.6712 97.4926 56.671 95.8283C55.795 95.1007 54.8826 94.3391 54.0455 93.4996V115.896C54.0455 116.769 53.3374 117.475 52.4663 117.475C51.5928 117.475 50.8871 116.767 50.8871 115.896V93.5021C50.0525 94.3416 49.14 95.1007 48.2665 95.8283C46.2639 97.4926 44.3732 99.0645 44.125 101.031C43.9474 102.422 43.9182 103.627 43.8915 104.795C43.8136 108.029 43.743 110.864 40.5092 114.786C39.9276 115.492 38.8692 115.56 38.2049 114.932L38.2024 114.93C37.5966 114.358 37.543 113.414 38.0759 112.771C40.6114 109.7 40.6625 107.656 40.7331 104.717C40.7623 103.53 40.7939 102.184 40.991 100.634C41.3973 97.4318 43.8623 95.3806 46.2493 93.3974C48.629 91.4192 50.8774 89.548 50.892 86.7254V82.0316C49.6802 83.1826 48.0718 84.1486 45.95 84.8201C45.1105 85.0854 44.2516 85.2825 43.3756 85.4066C39.0882 86.8957 38.475 89.329 37.5528 92.996C36.431 97.4562 35.0489 102.953 26.5714 108.002C25.8 108.462 24.7975 108.187 24.3668 107.389L24.3474 107.355C23.958 106.632 24.2087 105.729 24.9168 105.308C32.3042 100.916 33.46 96.3125 34.4893 92.2246C34.9127 90.5383 35.3433 88.8277 36.2023 87.2656C30.3892 88.1075 28.1992 90.3899 25.9047 92.7843C23.6709 95.1153 21.3666 97.5194 16.2056 98.5244C15.3053 98.6996 14.4415 98.0766 14.3296 97.1666V97.1642C14.2298 96.3466 14.7724 95.585 15.5803 95.4268C19.7752 94.6117 21.5734 92.7356 23.6223 90.5967C25.929 88.1878 28.4839 85.5282 34.443 84.3651C34.4406 84.3651 34.4406 84.3651 34.4382 84.3627H34.4357C26.3694 81.8467 23.6685 83.3066 20.5636 84.9856C18.4053 86.1511 16.0158 87.4432 11.9523 87.4432C11.5556 87.4432 11.1444 87.431 10.7162 87.4067C9.80124 87.3532 9.11992 86.5356 9.23672 85.6256V85.6231C9.34378 84.8031 10.0689 84.2021 10.8938 84.2508C14.8308 84.4892 16.8918 83.3772 19.0599 82.2044C22.6124 80.2845 26.2891 78.2965 36.4505 81.6909C39.2488 82.6253 42.2806 82.6667 44.9962 81.8053C48.1862 80.7931 50.0744 78.9243 50.8433 75.8486C50.8433 75.8462 50.8433 75.8462 50.8433 75.8462C50.8604 75.7854 50.8774 75.7246 50.8896 75.6613V72.1282H0C0 101.106 23.4933 124.597 52.4688 124.597C81.4466 124.597 104.94 101.106 104.94 72.1282H54.0479V72.1355Z" fill="#4C342A"/>
<path d="M50.9723 67.5194C36.3532 58.3022 26.5008 65.5047 9.13696 64.4438L11.6651 61.8767C27.7199 62.9132 41.1832 54.0026 50.9723 67.5194Z" fill="#30493C"/>
<path d="M48.7995 69.4174H3.03931L5.79378 66.6216C26.7857 67.9575 36.3728 61.4582 48.7995 69.4174Z" fill="#30493C"/>
<path d="M53.9675 67.5194C68.5867 58.3022 78.439 65.5047 95.8029 64.4438L93.2747 61.8767C77.2224 62.9132 63.7566 54.0026 53.9675 67.5194Z" fill="#30493C"/>
<path d="M56.1406 69.4174H101.901L99.1464 66.6216C78.1569 67.9575 68.5674 61.4582 56.1406 69.4174Z" fill="#30493C"/>
<path d="M5.79126 66.6242C5.69149 66.6193 5.59659 66.6096 5.49683 66.6047Z" fill="#30493C"/>
<path d="M73.7283 34.1569C73.1638 34.1301 72.6114 34.1156 72.0712 34.1156C65.1242 34.1156 59.4888 36.2155 55.7756 40.189C54.3667 41.6976 53.262 43.4545 52.4906 45.3914C51.7193 43.4545 50.6146 41.6976 49.2033 40.189C45.4901 36.2155 39.8571 34.1156 32.9101 34.1156C32.3504 34.1156 31.781 34.1301 31.2019 34.1569C35.9809 27.5895 43.7235 23.3215 52.4663 23.3215C61.2091 23.3215 68.9566 27.5895 73.7283 34.1569Z" fill="#E88B42"/>
<path d="M53.6465 63.1713C60.5959 54.7497 75.7869 58.9909 76.9646 37.2033C60.4183 35.0256 53.2912 43.7391 53.9677 53.7496C55.6929 50.4939 59.0849 46.3889 65.28 44.2915C66.1024 44.0116 66.9808 44.547 67.1195 45.4035C67.2315 46.0824 66.8324 46.7369 66.1827 46.9656C55.8097 50.6521 53.9579 59.5578 53.6465 63.1713Z" fill="#2D523D"/>
<path d="M51.3349 63.1713C44.3855 54.7497 29.1946 58.9909 28.0168 37.2033C44.5631 35.0256 51.6902 43.7391 51.0137 53.7496C49.2885 50.4939 45.8966 46.3889 39.7014 44.2915C38.879 44.0116 38.0006 44.547 37.8619 45.4035C37.75 46.0824 38.149 46.7369 38.7987 46.9656C49.1718 50.6521 51.0259 59.5578 51.3349 63.1713Z" fill="#2D523D"/>
<path d="M55.0967 17.4038C54.228 17.3332 53.352 17.2967 52.4663 17.2967C51.5806 17.2967 50.7022 17.3332 49.8359 17.4038L52.4663 0.219971L55.0967 17.4038Z" fill="#EA8F45"/>
<path d="M48.2445 17.5716C46.5509 17.7906 44.9011 18.1434 43.3 18.6179L43.3171 6.54639L48.2445 17.5716Z" fill="#EA8F45"/>
<path d="M61.6373 18.6179C60.0386 18.1434 58.3864 17.7906 56.6929 17.5716L61.6203 6.54639L61.6373 18.6179Z" fill="#EA8F45"/>
<path d="M78.3418 13.9922L73.4412 25.0368C72.1613 23.9394 70.7938 22.9466 69.3533 22.0609L78.3418 13.9922Z" fill="#EA8F45"/>
<path d="M90.591 27.5942L81.6292 35.6873C80.8993 34.1568 80.05 32.6944 79.0962 31.3099L90.591 27.5942Z" fill="#EA8F45"/>
<path d="M96.2458 45.0021L84.7607 48.7542C84.7169 47.0387 84.5393 45.3598 84.2351 43.7222L96.2458 45.0021Z" fill="#EA8F45"/>
<path d="M35.5064 22.1072C33.9491 23.0659 32.4819 24.156 31.1144 25.3604L25.8098 13.4033L35.5064 22.1072Z" fill="#EA8F45"/>
<path d="M25.9047 31.2176C24.8146 32.7846 23.8608 34.4514 23.0626 36.2058L12.8721 27.0056L25.9047 31.2176Z" fill="#EA8F45"/>
<path d="M20.7024 43.6929C20.3958 45.3499 20.2133 47.0484 20.172 48.7857L7.40942 44.8706L20.7024 43.6929Z" fill="#EA8F45"/>
<path d="M41.7721 19.1142C40.1004 19.6958 38.4969 20.4136 36.9664 21.2555L32.3821 4.49268L41.7721 19.1142Z" fill="#EA8F45"/>
<path d="M30.3138 26.0928C29.0314 27.2997 27.8464 28.6137 26.7782 30.0177L15.6436 16.6104L30.3138 26.0928Z" fill="#EA8F45"/>
<path d="M22.6515 37.1522C21.9774 38.7582 21.4324 40.4274 21.0285 42.1526L5.50415 34.3418L22.6515 37.1522Z" fill="#EA8F45"/>
<path d="M20.8312 56.1709L2.18018 54.1585L20.1889 50.8955C20.257 52.6937 20.476 54.4578 20.8312 56.1709Z" fill="#EA8F45"/>
<path d="M101.58 54.7668L84.2183 55.5868C84.5395 53.8859 84.7244 52.1388 84.7633 50.3552L101.58 54.7668Z" fill="#EA8F45"/>
<path d="M99.4334 34.3418L83.9067 42.155C83.5028 40.4299 82.9553 38.7582 82.2837 37.1498L99.4334 34.3418Z" fill="#EA8F45"/>
<path d="M89.1673 16.5593L78.1567 30.0129C77.0909 28.6138 75.9108 27.3071 74.6333 26.1026L89.1673 16.5593Z" fill="#EA8F45"/>
<path d="M72.5555 4.49048L67.9712 21.2533C66.4407 20.4163 64.8348 19.696 63.1655 19.112L72.5555 4.49048Z" fill="#EA8F45"/>
</svg>
