<?xml version="1.0" encoding="utf-8"?>
<!-- Generator: Adobe Illustrator 24.0.1, SVG Export Plug-In . SVG Version: 6.00 Build 0)  -->
<svg version="1.1" id="Layer_1" xmlns="http://www.w3.org/2000/svg" xmlns:xlink="http://www.w3.org/1999/xlink" x="0px" y="0px"
	 viewBox="0 0 792 125" style="enable-background:new 0 0 792 125;" xml:space="preserve">
<style type="text/css">
	.st0{fill:#FFFFFF;}
	.st1{fill:#30493C;}
	.st2{fill:#E88B42;}
	.st3{fill:#EA8F45;}
</style>
<g>
	<path class="st0" d="M150,67.5v-0.2c0-19.2,15-35,35.5-35c10.3,0,17,2.3,23.1,6.6c1.4,1.1,3.1,3.1,3.1,6c0,4.1-3.3,7.3-7.3,7.3
		c-2.1,0-3.5-0.8-4.5-1.5c-4.1-2.9-8.4-4.6-14.8-4.6c-10.8,0-19.4,9.6-19.4,21.1v0.2c0,12.4,8.5,21.5,20.5,21.5
		c5.4,0,10.3-1.4,14-4.1V75H190c-3.6,0-6.5-2.8-6.5-6.4c0-3.6,2.9-6.5,6.5-6.5h17c4.2,0,7.4,3.3,7.4,7.4v16.4c0,4.3-1.6,7.4-5.2,9.5
		c-5.5,3.4-13.5,6.8-23.7,6.8C164.5,102.3,150,87.5,150,67.5z"/>
	<path class="st0" d="M227.2,56.1c0-4.1,3.3-7.3,7.3-7.3c4.1,0,7.3,3.3,7.3,7.3v2.3c2.1-5,5.6-9.7,10-9.7c4.5,0,7.2,3,7.2,7.2
		c0,3.9-2.5,6.2-5.5,6.9c-7.4,1.7-11.6,7.4-11.6,17.9v13.7c0,4.1-3.3,7.3-7.3,7.3c-4.1,0-7.3-3.3-7.3-7.3L227.2,56.1L227.2,56.1z"/>
	<path class="st0" d="M263.7,75.5v-0.2c0-14.9,12-27,28.1-27c16,0,27.9,11.9,27.9,26.8v0.2c0,14.9-12,27-28.1,27
		C275.5,102.3,263.7,90.4,263.7,75.5z M305.2,75.5v-0.2c0-7.6-5.5-14.3-13.6-14.3c-8.4,0-13.4,6.5-13.4,14.1v0.2
		c0,7.6,5.5,14.3,13.6,14.3C300.2,89.6,305.2,83.2,305.2,75.5z"/>
	<path class="st0" d="M338.7,95.5L326,59c-0.3-0.9-0.7-2.3-0.7-3.6c0-3.4,2.7-6.7,7.1-6.7c3.7,0,6.1,2.3,7.2,5.7l7.9,26.3l8.1-26.2
		c1.1-3.5,3.8-5.9,7.5-5.9h0.9c3.8,0,6.5,2.4,7.5,5.9l8.2,26.3l8.1-26.5c1-3.1,3.2-5.6,7.1-5.6c4.1,0,6.9,3.1,6.9,6.8
		c0,1-0.3,2.3-0.5,3l-13,37c-1.5,4.5-4.5,6.6-8.1,6.6h-0.5c-3.6,0-6.6-2-7.9-6.3l-8.2-26.1l-8.3,26.1c-1.4,4.3-4.3,6.3-7.9,6.3h-0.5
		C343.2,102.1,340.2,100.1,338.7,95.5z"/>
	<path class="st0" d="M409.7,67.5v-0.2c0-19.2,15.2-35,36-35c20.9,0,35.9,15.6,35.9,34.8v0.2c0,19.2-15.2,35-36,35
		C424.7,102.3,409.7,86.7,409.7,67.5z M466,67.5v-0.2c0-11.6-8.5-21.3-20.5-21.3s-20.3,9.5-20.3,21.1v0.2c0,11.6,8.5,21.3,20.5,21.3
		C457.7,88.6,466,79.1,466,67.5z"/>
	<path class="st0" d="M493.3,56.1c0-4.1,3.3-7.3,7.3-7.3s7.3,3.3,7.3,7.3v0.6c3.4-4.3,7.7-8.3,15.2-8.3c11.1,0,17.6,7.3,17.6,19.2
		v26.8c0,4.1-3.3,7.3-7.3,7.3c-4.1,0-7.3-3.3-7.3-7.3V72.2c0-7-3.3-10.5-8.9-10.5c-5.6,0-9.2,3.6-9.2,10.5v22.1
		c0,4.1-3.3,7.3-7.3,7.3s-7.3-3.3-7.3-7.3V56.1z"/>
	<path class="st0" d="M555,40.9c0-4.2,3.3-7.4,7.4-7.4h18.9c21.3,0,36,14.6,36,33.6v0.2c0,19-14.7,33.8-36,33.8h-18.9
		c-4.2,0-7.4-3.3-7.4-7.4V40.9z M581.4,87.7c12.2,0,20.4-8.2,20.4-20.2v-0.2c0-12-8.2-20.4-20.4-20.4h-11.5v40.8H581.4z"/>
	<path class="st0" d="M626,86.2V86c0-11.3,8.6-16.5,20.9-16.5c5.2,0,9,0.9,12.7,2.1v-0.9c0-6.1-3.8-9.5-11.1-9.5
		c-4.1,0-7.3,0.6-10.1,1.4c-0.9,0.3-1.5,0.4-2.1,0.4c-3.4,0-6.1-2.6-6.1-6c0-2.6,1.6-4.8,4-5.7c4.6-1.7,9.7-2.7,16.5-2.7
		c8,0,13.8,2.1,17.5,5.8c3.9,3.9,5.6,9.6,5.6,16.5v23.6c0,4-3.2,7.1-7.2,7.1c-4.3,0-7.1-3-7.1-6.1v-0.1c-3.6,4-8.5,6.6-15.7,6.6
		C634,102.1,626,96.5,626,86.2z M659.7,82.9v-2.6c-2.5-1.2-5.8-1.9-9.4-1.9c-6.3,0-10.1,2.5-10.1,7.2v0.2c0,4,3.3,6.3,8,6.3
		C655.1,91.9,659.7,88.2,659.7,82.9z"/>
	<path class="st0" d="M686.1,37c0-4.3,3.6-6.9,8.2-6.9c4.6,0,8.2,2.6,8.2,6.9v0.2c0,4.3-3.6,7-8.2,7c-4.6,0-8.2-2.7-8.2-7V37z
		 M687,56.1c0-4.1,3.3-7.3,7.3-7.3c4.1,0,7.3,3.3,7.3,7.3v38.3c0,4.1-3.3,7.3-7.3,7.3c-4.1,0-7.3-3.3-7.3-7.3V56.1z"/>
	<path class="st0" d="M716.2,37.3c0-4.1,3.3-7.3,7.3-7.3c4.1,0,7.4,3.3,7.4,7.3v57c0,4.1-3.3,7.3-7.4,7.3c-4.1,0-7.3-3.3-7.3-7.3
		V37.3z"/>
	<path class="st0" d="M747.4,115.5c-2.1-0.8-4.6-2.5-4.6-6.1c0-3.6,2.8-6,5.8-6c1.2,0,1.8,0.2,2.4,0.4c1.3,0.4,2,0.6,3.1,0.6
		c2.6,0,3.9-0.5,5.2-3.1l0.5-1.2l-17.7-41c-0.4-1-0.8-2.4-0.8-3.4c0-4.2,3.2-7.1,7.2-7.1c3.7,0,5.8,2,7.1,5.5l11.2,30.2l10.8-30.1
		c1.2-3.1,3.3-5.6,7.1-5.6s7,2.9,7,6.8c0,1.2-0.4,2.8-0.7,3.5l-18.1,43.4c-4.3,10.5-8.7,14.5-17.5,14.5
		C752.1,116.9,749.8,116.4,747.4,115.5z"/>
</g>
<path class="st0" d="M54,72.1v3.5c0,0.1,0,0.1,0,0.2c0,0,0,0,0,0c0.8,3.1,2.7,4.9,5.8,6c2.7,0.9,5.7,0.8,8.5-0.1
	c10.2-3.4,13.8-1.4,17.4,0.5c2.2,1.2,4.2,2.3,8.2,2c0.8-0.1,1.5,0.5,1.7,1.4v0c0.1,0.9-0.6,1.7-1.5,1.8c-0.4,0-0.8,0-1.2,0
	c-4.1,0-6.5-1.3-8.6-2.5c-3.1-1.7-5.8-3.1-13.9-0.6h0h0c6,1.2,8.5,3.8,10.8,6.2c2.1,2.1,3.8,4,8,4.8c0.8,0.2,1.4,0.9,1.3,1.7v0
	c-0.1,0.9-1,1.5-1.9,1.4c-5.2-1-7.5-3.4-9.7-5.7c-2.3-2.4-4.5-4.7-10.3-5.5c0.9,1.6,1.3,3.3,1.7,5c1,4.1,2.2,8.7,9.5,13.1
	c0.7,0.4,1,1.4,0.6,2.1l0,0c-0.4,0.8-1.4,1-2.1,0.6c-8.5-5.1-9.9-10.6-11-15c-0.9-3.7-1.5-6.1-5.8-7.6c-0.9-0.1-1.7-0.3-2.6-0.6
	c-2.1-0.7-3.7-1.6-4.9-2.8v4.7h0c0,2.8,2.3,4.7,4.6,6.7c2.4,2,4.9,4,5.3,7.2c0.2,1.5,0.2,2.9,0.3,4.1c0.1,3,0.1,5,2.7,8.1
	c0.5,0.6,0.5,1.6-0.1,2.2l0,0c-0.6,0.6-1.7,0.5-2.2-0.1c-3.3-3.9-3.3-6.8-3.4-10c0-1.2-0.1-2.4-0.2-3.8c-0.2-2-2.1-3.5-4.1-5.2
	c-0.9-0.7-1.8-1.5-2.6-2.3v22.4c0,0.9-0.7,1.6-1.6,1.6c-0.9,0-1.6-0.7-1.6-1.6V93.5c-0.8,0.8-1.7,1.6-2.6,2.3
	c-2,1.7-3.9,3.2-4.1,5.2c-0.2,1.4-0.2,2.6-0.2,3.8c-0.1,3.2-0.1,6.1-3.4,10c-0.6,0.7-1.6,0.8-2.3,0.1l0,0c-0.6-0.6-0.7-1.5-0.1-2.2
	c2.5-3.1,2.6-5.1,2.7-8.1c0-1.2,0.1-2.5,0.3-4.1c0.4-3.2,2.9-5.3,5.3-7.2c2.4-2,4.6-3.8,4.6-6.7V82c-1.2,1.2-2.8,2.1-4.9,2.8
	c-0.8,0.3-1.7,0.5-2.6,0.6c-4.3,1.5-4.9,3.9-5.8,7.6c-1.1,4.5-2.5,10-11,15c-0.8,0.5-1.8,0.2-2.2-0.6l0,0c-0.4-0.7-0.1-1.6,0.6-2
	c7.4-4.4,8.5-9,9.6-13.1c0.4-1.7,0.9-3.4,1.7-5c-5.8,0.8-8,3.1-10.3,5.5c-2.2,2.3-4.5,4.7-9.7,5.7c-0.9,0.2-1.8-0.4-1.9-1.4v0
	c-0.1-0.8,0.4-1.6,1.3-1.7c4.2-0.8,6-2.7,8-4.8c2.3-2.4,4.9-5.1,10.8-6.2c0,0,0,0,0,0h0c-8.1-2.5-10.8-1.1-13.9,0.6
	c-2.2,1.2-4.5,2.5-8.6,2.5c-0.4,0-0.8,0-1.2,0c-0.9-0.1-1.6-0.9-1.5-1.8v0c0.1-0.8,0.8-1.4,1.7-1.4c3.9,0.2,6-0.9,8.2-2
	c3.6-1.9,7.2-3.9,17.4-0.5c2.8,0.9,5.8,1,8.5,0.1c3.2-1,5.1-2.9,5.8-6c0,0,0,0,0,0c0-0.1,0-0.1,0-0.2v-3.5H0
	c0,29,23.5,52.5,52.5,52.5c29,0,52.5-23.5,52.5-52.5L54,72.1L54,72.1z"/>
<path class="st0" d="M51,67.5c-14.6-9.2-24.5-2-41.8-3.1l2.5-2.6C27.7,62.9,41.2,54,51,67.5z"/>
<path class="st0" d="M48.8,69.4H3l2.8-2.8C26.8,68,36.4,61.5,48.8,69.4z"/>
<path class="st0" d="M54,67.5c14.6-9.2,24.5-2,41.8-3.1l-2.5-2.6C77.2,62.9,63.8,54,54,67.5z"/>
<path class="st0" d="M56.1,69.4h45.8l-2.8-2.8C78.2,68,68.6,61.5,56.1,69.4z"/>
<path class="st1" d="M5.8,66.6c-0.1,0-0.2,0-0.3,0L5.8,66.6z"/>
<path class="st2" d="M73.7,34.2c-0.6,0-1.1,0-1.7,0c-6.9,0-12.6,2.1-16.3,6.1c-1.4,1.5-2.5,3.3-3.3,5.2c-0.8-1.9-1.9-3.7-3.3-5.2
	c-3.7-4-9.3-6.1-16.3-6.1c-0.6,0-1.1,0-1.7,0c4.8-6.6,12.5-10.8,21.3-10.8S69,27.6,73.7,34.2z"/>
<path class="st0" d="M53.6,63.2c6.9-8.4,22.1-4.2,23.3-26C60.4,35,53.3,43.7,54,53.7c1.7-3.3,5.1-7.4,11.3-9.5
	c0.8-0.3,1.7,0.3,1.8,1.1c0.1,0.7-0.3,1.3-0.9,1.6C55.8,50.7,54,59.6,53.6,63.2z"/>
<path class="st0" d="M51.3,63.2c-6.9-8.4-22.1-4.2-23.3-26c16.5-2.2,23.7,6.5,23,16.5c-1.7-3.3-5.1-7.4-11.3-9.5
	c-0.8-0.3-1.7,0.3-1.8,1.1c-0.1,0.7,0.3,1.3,0.9,1.6C49.2,50.7,51,59.6,51.3,63.2z"/>
<path class="st3" d="M55.1,17.4c-0.9-0.1-1.7-0.1-2.6-0.1s-1.8,0-2.6,0.1l2.6-17.2L55.1,17.4z"/>
<path class="st3" d="M48.2,17.6c-1.7,0.2-3.3,0.6-4.9,1l0-12.1L48.2,17.6z"/>
<path class="st3" d="M61.6,18.6c-1.6-0.5-3.3-0.8-4.9-1l4.9-11L61.6,18.6z"/>
<path class="st3" d="M78.3,14l-4.9,11c-1.3-1.1-2.6-2.1-4.1-3L78.3,14z"/>
<path class="st3" d="M90.6,27.6l-9,8.1c-0.7-1.5-1.6-3-2.5-4.4L90.6,27.6z"/>
<path class="st3" d="M96.2,45l-11.5,3.8c0-1.7-0.2-3.4-0.5-5L96.2,45z"/>
<path class="st3" d="M35.5,22.1c-1.6,1-3,2-4.4,3.3l-5.3-12L35.5,22.1z"/>
<path class="st3" d="M25.9,31.2c-1.1,1.6-2,3.2-2.8,5L12.9,27L25.9,31.2z"/>
<path class="st3" d="M20.7,43.7c-0.3,1.7-0.5,3.4-0.5,5.1L7.4,44.9L20.7,43.7z"/>
<path class="st3" d="M41.8,19.1c-1.7,0.6-3.3,1.3-4.8,2.1L32.4,4.5L41.8,19.1z"/>
<path class="st3" d="M30.3,26.1c-1.3,1.2-2.5,2.5-3.5,3.9L15.6,16.6L30.3,26.1z"/>
<path class="st3" d="M22.7,37.2c-0.7,1.6-1.2,3.3-1.6,5L5.5,34.3L22.7,37.2z"/>
<path class="st3" d="M20.8,56.2l-18.7-2l18-3.3C20.3,52.7,20.5,54.5,20.8,56.2z"/>
<path class="st3" d="M101.6,54.8l-17.4,0.8c0.3-1.7,0.5-3.4,0.5-5.2L101.6,54.8z"/>
<path class="st3" d="M99.4,34.3l-15.5,7.8c-0.4-1.7-1-3.4-1.6-5L99.4,34.3z"/>
<path class="st3" d="M89.2,16.6L78.2,30c-1.1-1.4-2.2-2.7-3.5-3.9L89.2,16.6z"/>
<path class="st3" d="M72.6,4.5L68,21.3c-1.5-0.8-3.1-1.6-4.8-2.1L72.6,4.5z"/>
</svg>
