<svg width="432" height="512" viewBox="0 0 432 512" fill="none" xmlns="http://www.w3.org/2000/svg">
<path d="M222.49 295.74V310.21C222.56 310.48 222.61 310.75 222.69 311.02C222.69 311.02 222.69 311.02 222.69 311.03C225.85 323.68 233.61 331.36 246.72 335.51C257.88 339.04 270.35 338.88 281.84 335.04C323.59 321.08 338.7 329.26 353.31 337.15C362.22 341.96 370.68 346.54 386.87 345.56C390.27 345.35 393.24 347.82 393.68 351.2V351.21C394.17 354.95 391.37 358.3 387.6 358.53C385.84 358.64 384.15 358.68 382.52 358.68C365.82 358.68 355.99 353.37 347.13 348.58C334.37 341.68 323.28 335.67 290.11 346.02H290.1H290.09C314.59 350.8 325.08 361.74 334.57 371.63C343 380.42 350.38 388.13 367.62 391.48C370.94 392.12 373.17 395.26 372.76 398.62V398.63C372.3 402.37 368.75 404.93 365.05 404.21C343.84 400.08 334.37 390.2 325.19 380.62C315.76 370.78 306.75 361.41 282.87 357.94C286.4 364.36 288.17 371.39 289.91 378.32C294.13 395.09 298.88 413.98 329.1 432C332.09 433.78 333.16 437.59 331.49 440.68L331.41 440.82C329.7 443.98 325.7 445.08 322.61 443.24C287.63 422.46 281.94 399.83 277.32 381.47C273.53 366.4 271.01 356.4 253.39 350.28C249.79 349.76 246.26 348.96 242.81 347.87C234.09 345.1 227.48 341.13 222.49 336.4V355.59H222.5C222.5 367.25 231.77 374.96 241.58 383.12C251.38 391.27 261.52 399.69 263.19 412.86C264 419.23 264.13 424.76 264.25 429.64C264.55 442.14 264.75 450.2 275.15 462.73C277.34 465.37 277.14 469.26 274.61 471.64L274.49 471.75C271.83 474.26 267.61 473.98 265.28 471.16C251.86 454.96 251.58 443.28 251.25 429.95C251.13 425.16 251.01 420.2 250.29 414.49C249.27 406.41 241.49 399.95 233.27 393.11C229.67 390.12 225.92 386.99 222.48 383.54V475.58C222.48 479.17 219.57 482.07 215.99 482.07C212.4 482.07 209.5 479.16 209.5 475.58V383.55C206.07 387 202.32 390.12 198.73 393.11C190.5 399.95 182.73 406.41 181.71 414.49C180.98 420.21 180.86 425.16 180.75 429.96C180.43 443.25 180.14 454.9 166.85 471.02C164.46 473.92 160.11 474.2 157.38 471.62L157.37 471.61C154.88 469.26 154.66 465.38 156.85 462.74C167.27 450.12 167.48 441.72 167.77 429.64C167.89 424.76 168.02 419.23 168.83 412.86C170.5 399.7 180.63 391.27 190.44 383.12C200.22 374.99 209.46 367.3 209.52 355.7V336.41C204.54 341.14 197.93 345.11 189.21 347.87C185.76 348.96 182.23 349.77 178.63 350.28C161.01 356.4 158.49 366.4 154.7 381.47C150.09 399.8 144.41 422.39 109.57 443.14C106.4 445.03 102.28 443.9 100.51 440.62L100.43 440.48C98.83 437.51 99.86 433.8 102.77 432.07C133.13 414.02 137.88 395.1 142.11 378.3C143.85 371.37 145.62 364.34 149.15 357.92C125.26 361.38 116.26 370.76 106.83 380.6C97.65 390.18 88.18 400.06 66.97 404.19C63.27 404.91 59.72 402.35 59.26 398.61V398.6C58.85 395.24 61.08 392.11 64.4 391.46C81.64 388.11 89.03 380.4 97.45 371.61C106.93 361.71 117.43 350.78 141.92 346C141.91 346 141.91 346 141.9 345.99H141.89C108.74 335.65 97.64 341.65 84.88 348.55C76.01 353.34 66.19 358.65 49.49 358.65C47.86 358.65 46.17 358.6 44.41 358.5C40.65 358.28 37.85 354.92 38.33 351.18V351.17C38.77 347.8 41.75 345.33 45.14 345.53C61.32 346.51 69.79 341.94 78.7 337.12C93.3 329.23 108.41 321.06 150.17 335.01C161.67 338.85 174.13 339.02 185.29 335.48C198.4 331.32 206.16 323.64 209.32 311C209.32 310.99 209.32 310.99 209.32 310.99C209.39 310.74 209.46 310.49 209.51 310.23V295.71H0.369995C0.369995 414.8 96.92 511.34 216 511.34C335.09 511.34 431.64 414.8 431.64 295.71H222.49V295.74Z" fill="#4C342A"/>
<path d="M209.85 276.77C149.77 238.89 109.28 268.49 37.92 264.13L48.31 253.58C114.29 257.84 169.62 221.21 209.85 276.77Z" fill="#30493C"/>
<path d="M200.92 284.57H12.86L24.18 273.08C110.45 278.56 149.85 251.85 200.92 284.57Z" fill="#30493C"/>
<path d="M222.16 276.77C282.24 238.89 322.73 268.49 394.09 264.13L383.7 253.58C317.73 257.84 262.39 221.21 222.16 276.77Z" fill="#30493C"/>
<path d="M231.09 284.57H419.15L407.83 273.08C321.57 278.56 282.16 251.85 231.09 284.57Z" fill="#30493C"/>
<path d="M24.17 273.09C23.76 273.07 23.37 273.03 22.96 273.01Z" fill="#30493C"/>
<path d="M303.37 139.65C301.05 139.54 298.78 139.48 296.56 139.48C268.01 139.48 244.85 148.11 229.59 164.44C223.8 170.64 219.26 177.86 216.09 185.82C212.92 177.86 208.38 170.64 202.58 164.44C187.32 148.11 164.17 139.48 135.62 139.48C133.32 139.48 130.98 139.54 128.6 139.65C148.24 112.66 180.06 95.1199 215.99 95.1199C251.92 95.1199 283.76 112.66 303.37 139.65Z" fill="#E88B42"/>
<path d="M220.84 258.89C249.4 224.28 311.83 241.71 316.67 152.17C248.67 143.22 219.38 179.03 222.16 220.17C229.25 206.79 243.19 189.92 268.65 181.3C272.03 180.15 275.64 182.35 276.21 185.87C276.67 188.66 275.03 191.35 272.36 192.29C229.73 207.45 222.12 244.05 220.84 258.89Z" fill="#2D523D"/>
<path d="M211.34 258.89C182.78 224.28 120.35 241.71 115.51 152.17C183.51 143.22 212.8 179.03 210.02 220.17C202.93 206.79 188.99 189.92 163.53 181.3C160.15 180.15 156.54 182.35 155.97 185.87C155.51 188.66 157.15 191.35 159.82 192.29C202.45 207.45 210.07 244.05 211.34 258.89Z" fill="#2D523D"/>
<path d="M226.8 70.8099C223.23 70.5199 219.63 70.3699 215.99 70.3699C212.35 70.3699 208.74 70.5199 205.18 70.8099L215.99 0.189941L226.8 70.8099Z" fill="#EA8F45"/>
<path d="M198.64 71.4999C191.68 72.3999 184.9 73.8499 178.32 75.7999L178.39 26.1899L198.64 71.4999Z" fill="#EA8F45"/>
<path d="M253.68 75.7999C247.11 73.8499 240.32 72.3999 233.36 71.4999L253.61 26.1899L253.68 75.7999Z" fill="#EA8F45"/>
<path d="M322.33 56.7799L302.19 102.17C296.93 97.6599 291.31 93.5799 285.39 89.9399L322.33 56.7799Z" fill="#EA8F45"/>
<path d="M372.67 112.68L335.84 145.94C332.84 139.65 329.35 133.64 325.43 127.95L372.67 112.68Z" fill="#EA8F45"/>
<path d="M395.91 184.23L348.71 199.65C348.53 192.6 347.8 185.7 346.55 178.97L395.91 184.23Z" fill="#EA8F45"/>
<path d="M146.29 90.13C139.89 94.07 133.86 98.55 128.24 103.5L106.44 54.36L146.29 90.13Z" fill="#EA8F45"/>
<path d="M106.83 127.58C102.35 134.02 98.43 140.87 95.15 148.08L53.27 110.27L106.83 127.58Z" fill="#EA8F45"/>
<path d="M85.45 178.84C84.19 185.65 83.4399 192.63 83.2699 199.77L30.8199 183.68L85.45 178.84Z" fill="#EA8F45"/>
<path d="M172.04 77.83C165.17 80.22 158.58 83.17 152.29 86.63L133.45 17.74L172.04 77.83Z" fill="#EA8F45"/>
<path d="M124.95 106.52C119.68 111.48 114.81 116.88 110.42 122.65L64.66 67.5499L124.95 106.52Z" fill="#EA8F45"/>
<path d="M93.46 151.96C90.69 158.56 88.45 165.42 86.79 172.51L22.99 140.41L93.46 151.96Z" fill="#EA8F45"/>
<path d="M85.98 230.13L9.32996 221.86L83.34 208.44C83.62 215.84 84.52 223.09 85.98 230.13Z" fill="#EA8F45"/>
<path d="M417.83 224.35L346.48 227.72C347.8 220.73 348.56 213.55 348.72 206.22L417.83 224.35Z" fill="#EA8F45"/>
<path d="M409.01 140.42L345.2 172.53C343.54 165.44 341.29 158.57 338.53 151.96L409.01 140.42Z" fill="#EA8F45"/>
<path d="M366.82 67.34L321.57 122.63C317.19 116.88 312.34 111.51 307.09 106.56L366.82 67.34Z" fill="#EA8F45"/>
<path d="M298.55 17.74L279.71 86.63C273.42 83.19 266.82 80.23 259.96 77.83L298.55 17.74Z" fill="#EA8F45"/>
</svg>
